<?xml version="1.0" encoding="UTF-8" standalone="no"?>
<svg
   xmlns:dc="http://purl.org/dc/elements/1.1/"
   xmlns:cc="http://creativecommons.org/ns#"
   xmlns:rdf="http://www.w3.org/1999/02/22-rdf-syntax-ns#"
   xmlns:svg="http://www.w3.org/2000/svg"
   xmlns="http://www.w3.org/2000/svg"
   xmlns:sodipodi="http://sodipodi.sourceforge.net/DTD/sodipodi-0.dtd"
   xmlns:inkscape="http://www.inkscape.org/namespaces/inkscape"
   version="1.0"
   width="402.67102pt"
   height="403.71674pt"
   viewBox="0 0 402.67102 403.71674"
   preserveAspectRatio="xMidYMid meet"
   id="svg839"
   sodipodi:docname="fp.svg"
   inkscape:version="1.0.1 (c497b03c, 2020-09-10)">
  <defs
     id="defs843" />
  <sodipodi:namedview
     pagecolor="#ffffff"
     bordercolor="#666666"
     borderopacity="1"
     objecttolerance="10"
     gridtolerance="10"
     guidetolerance="10"
     inkscape:pageopacity="0"
     inkscape:pageshadow="2"
     inkscape:window-width="1387"
     inkscape:window-height="847"
     id="namedview841"
     showgrid="false"
     inkscape:zoom="1.1870947"
     inkscape:cx="268.20724"
     inkscape:cy="270.5048"
     inkscape:window-x="53"
     inkscape:window-y="25"
     inkscape:window-maximized="1"
     inkscape:current-layer="svg839"
     fit-margin-top="0"
     fit-margin-left="0"
     fit-margin-right="0"
     fit-margin-bottom="0" />
  <metadata
     id="metadata833">
Created by potrace 1.16, written by Peter Selinger 2001-2019
<rdf:RDF>
  <cc:Work
     rdf:about="">
    <dc:format>image/svg+xml</dc:format>
    <dc:type
       rdf:resource="http://purl.org/dc/dcmitype/StillImage" />
    <dc:title></dc:title>
  </cc:Work>
</rdf:RDF>
</metadata>
  <g
     id="g850"
     style="fill:#fe0000;fill-opacity:1"
     transform="translate(-91.693926,-112.11682)">
    <path
       d="m 269.7,113.5 c -31.4,3.8 -58.5,13.5 -84.9,30.2 -43.1,27.4 -74.8,71 -87.2,120.1 -4.9,18.9 -6,28.3 -5.9,50.2 0,21.8 1.1,31.5 5.9,50.2 16.7,66.1 68.4,121.1 133.1,141.8 71.5,22.9 147.8,5.2 202.5,-46.8 31.5,-30.1 53.4,-73 59.9,-117.7 1.9,-12.9 1.6,-45.4 -0.5,-58 -8.4,-50.2 -33.3,-94.1 -71.1,-125 -11.7,-9.5 -16.4,-12.8 -27.7,-19.3 -38,-21.7 -81.7,-30.8 -124.1,-25.7 z m 81.8,85.4 c 6.1,1.1 18.4,3.8 27.5,6 30.3,7.3 34,7.5 46.5,1.7 7.5,-3.5 9.5,-3.6 9.5,-0.5 0,3.4 -2.7,7.4 -8.9,13.1 -10.9,10.2 -22.7,15.1 -35.6,15.1 -8.8,0 -14.5,-1.5 -43.5,-11.3 -27.5,-9.3 -40.4,-12.2 -54.6,-12.2 -20,0 -36.7,6.7 -59.2,23.7 -10.4,7.8 -24.7,22 -30,29.8 -12,17.4 -14.8,35.7 -7.4,47.6 5.1,8.3 13.7,11.4 24.4,8.6 8.4,-2.1 15.5,-6.5 24,-15 8.9,-8.9 14.8,-17.1 19.7,-27.7 5.7,-12.2 7.4,-20.2 7.6,-34.6 0.2,-13.1 0.8,-15.2 4.4,-13.3 5,2.7 8.1,14.5 8.1,31 0,15.2 -1.8,23.8 -7.6,35.9 -8.5,17.7 -25.6,31.2 -43.5,34.2 -21.3,3.6 -38.3,-3.5 -45.2,-18.8 -2.5,-5.8 -3.4,-18.5 -1.8,-26.4 2.4,-11.5 11.4,-26.8 22.9,-39 24.2,-25.6 61.6,-45.1 95.7,-49.7 10.4,-1.5 34.3,-0.5 47,1.8 z M 358,240 c 0,1.1 -1.3,4.4 -2.9,7.3 -7.7,13.6 -16.3,41.6 -20.9,67.5 l -2,11.3 2.7,-0.5 c 1.4,-0.3 5.1,-0.8 8.1,-1.2 l 5.5,-0.7 5.3,-10.7 c 9.2,-18.3 15.6,-25 23.8,-25 6.3,0 8.4,2.4 8.4,9.5 0,3.7 -0.7,7 -2.1,9.6 -2.6,5.3 -9.7,12 -15.8,15 -4.8,2.4 -4.8,2.5 -6.6,9.9 -2.3,9.7 -9.3,30.2 -10.8,31.6 -1.3,1.2 -21.5,4.9 -22.3,4.1 -0.6,-0.5 4.5,-12.8 11.5,-28 3.3,-7.1 3.7,-8.7 2.3,-8.3 -0.9,0.2 -4.2,0.7 -7.2,1.1 l -5.5,0.6 -2.9,8.7 c -3.5,10.9 -10.8,25.7 -17.6,35.7 -18.7,27.7 -49.3,46.5 -84.5,52 -20.6,3.2 -43.2,2.8 -58.1,-1 -21.6,-5.6 -35,-18.7 -36.2,-35.5 -1.1,-15.8 6.7,-28.5 20.3,-33 6.5,-2.2 17.6,-1.6 23.2,1.1 8.5,4.3 12.2,13.6 8.9,22.4 -2.2,5.8 -5.5,7.7 -18.6,10.9 -11.7,2.9 -15.3,5.4 -15.3,10.5 0,6.4 7.3,12.5 19.8,16.4 10.1,3.1 30.6,3.1 41.8,-0.1 20.5,-5.9 35.6,-17.8 50.2,-39.7 7.7,-11.6 21.5,-39.9 20.1,-41.2 -0.9,-1 -16.8,4.5 -25.5,8.7 -4.6,2.2 -14.1,7.7 -21.1,12.1 -12.8,8.1 -16,9 -16,4.6 0,-7.4 33.7,-26.1 57.5,-31.8 l 9.1,-2.2 2.4,-6.1 c 3.8,-10.1 14.4,-30.5 20.7,-40.1 16.7,-25.3 38.7,-47.5 46.9,-47.5 2.7,0 3.4,0.4 3.4,2 z"
       id="path835"
       style="fill:#fe0000;fill-opacity:1;stroke:none;stroke-width:0.1" />
    <path
       style="fill:#fe0000;fill-opacity:1;stroke:none;stroke-width:0.751181;stroke-linecap:butt;stroke-linejoin:miter;stroke-miterlimit:4;stroke-dasharray:none;stroke-opacity:1"
       d="m 366.4763,313.78734 c 0.29988,-2.84092 0.87599,-3.98316 1.86595,-6.64932 0.60866,-1.63924 1.17665,-3.28664 1.78698,-4.91421 0.79391,-2.01576 1.87169,-3.8636 3.8109,-5.33618 2.22898,-0.17729 2.62107,-0.26109 3.67211,1.31547 0.58648,0.73518 0.86074,1.94921 1.06101,2.51295 -0.18434,3.32232 -2.24908,5.8651 -4.5233,8.87907 -1.37513,1.78372 -2.67913,2.5051 -4.1324,3.51813 -1.18536,0.79025 -2.57992,0.85241 -3.54125,0.67409 z"
       id="path846"
       sodipodi:nodetypes="csccccccc" />
  </g>
</svg>
