<?xml version="1.0" encoding="UTF-8" standalone="no"?>
<svg
   xmlns:dc="http://purl.org/dc/elements/1.1/"
   xmlns:cc="http://creativecommons.org/ns#"
   xmlns:rdf="http://www.w3.org/1999/02/22-rdf-syntax-ns#"
   xmlns:svg="http://www.w3.org/2000/svg"
   xmlns="http://www.w3.org/2000/svg"
   xmlns:sodipodi="http://sodipodi.sourceforge.net/DTD/sodipodi-0.dtd"
   xmlns:inkscape="http://www.inkscape.org/namespaces/inkscape"
   version="1.0"
   width="304.90302pt"
   height="235.26291pt"
   viewBox="0 0 304.90301 235.26291"
   preserveAspectRatio="xMidYMid meet"
   id="svg839"
   sodipodi:docname="fp_round_invert_green.svg"
   inkscape:version="1.0.1 (c497b03c, 2020-09-10)">
  <sodipodi:namedview
     pagecolor="#ffffff"
     bordercolor="#666666"
     borderopacity="1"
     objecttolerance="10"
     gridtolerance="10"
     guidetolerance="10"
     inkscape:pageopacity="0"
     inkscape:pageshadow="2"
     inkscape:window-width="1387"
     inkscape:window-height="847"
     id="namedview837"
     showgrid="false"
     inkscape:zoom="1.7513766"
     inkscape:cx="203.26868"
     inkscape:cy="156.84194"
     inkscape:window-x="53"
     inkscape:window-y="25"
     inkscape:window-maximized="1"
     inkscape:current-layer="svg839"
     inkscape:document-rotation="0" />
  <defs
     id="defs843" />
  <metadata
     id="metadata833">
Created by potrace 1.16, written by Peter Selinger 2001-2019
<rdf:RDF>
  <cc:Work
     rdf:about="">
    <dc:format>image/svg+xml</dc:format>
    <dc:type
       rdf:resource="http://purl.org/dc/dcmitype/StillImage" />
    <dc:title></dc:title>
  </cc:Work>
</rdf:RDF>
</metadata>
  <path
     id="rect859"
     style="fill:#14591d;fill-opacity:1;stroke-width:1.00157;stroke-linejoin:round"
     transform="scale(0.75000001)"
     d="M 249.80469,0.00195313 C 242.96078,0.02473979 236.87044,0.32421876 232.53711,0.94921875 187.07044,7.082548 137.20221,33.083477 104.93555,67.216797 89.602214,83.483463 77.602344,103.88346 74.402344,119.2168 c -2.133334,10.53333 -0.932943,27.46588 2.40039,35.19922 9.200002,20.4 31.867586,29.8664 60.267576,25.0664 23.86667,-4 46.66667,-21.99961 58,-45.59961 7.73334,-16.13331 10.13281,-27.60052 10.13281,-47.867185 0,-22 -4.1341,-37.732031 -10.80078,-41.332031 -4.8,-2.533334 -5.59856,0.265768 -5.86523,17.732422 -0.26667,19.199999 -2.53477,29.866146 -10.13477,46.132814 -6.53332,14.13333 -14.39897,25.06693 -26.26562,36.93359 -11.33335,11.33334 -20.8,17.2 -32,20 -14.26667,3.73334 -25.733204,-0.40013 -32.533204,-11.4668 -9.866655,-15.86666 -6.134766,-40.26679 9.865234,-63.466792 7.06668,-10.4 26.13334,-29.332422 40,-39.732422 30,-22.666653 52.26693,-31.599609 78.93359,-31.599609 18.93335,0 36.13412,3.865633 72.80078,16.265625 38.66667,13.066666 46.26667,15.066406 58,15.066406 17.2,0 32.93348,-6.532826 47.4668,-20.132812 8.26668,-7.600002 11.86719,-12.933466 11.86719,-17.466797 0,-4.1333389 -2.66797,-3.9987011 -12.66797,0.667969 -16.66667,7.733329 -21.6,7.465751 -62,-2.267579 C 319.73581,8.4162694 303.33646,4.8162694 295.20312,3.3496094 283.56146,1.2412694 264.86129,-0.04817621 249.80469,0.00195313 Z M 299.33594,55.482422 c -10.93334,0 -40.26654,29.600651 -62.53321,63.333988 -8.4,12.8 -22.53294,40.00013 -27.59961,53.46679 l -3.19921,8.13282 -12.13477,2.93359 c -31.73333,7.6 -76.66601,32.53372 -76.66602,42.40039 0,5.86667 4.26733,4.66719 21.33399,-6.13281 9.33333,-5.86668 21.99948,-13.20143 28.13281,-16.13477 11.6,-5.6 32.8,-12.93294 34,-11.59961 1.86667,1.73334 -16.5341,39.46694 -26.80078,54.9336 -19.46667,29.20001 -39.60026,45.06692 -66.93359,52.93359 -14.933336,4.26667 -42.265758,4.26616 -55.732425,0.13281 -16.666661,-5.2 -26.400391,-13.33385 -26.400391,-21.86719 2e-6,-6.79999 4.800396,-10.13333 20.400391,-14 17.466666,-4.26666 21.867448,-6.79986 24.800781,-14.5332 4.4,-11.73333 -0.533854,-24.13191 -11.867187,-29.86523 -7.466667,-3.6 -22.266927,-4.40013 -30.933594,-1.4668 -18.1333329,6 -28.5330729,22.93333 -27.06640625,44 1.60000005,22.4 19.46562225,39.86535 48.26562525,47.33203 19.866666,5.06667 50.00013,5.60065 77.466796,1.33399 46.93333,-7.33334 87.73464,-32.40067 112.66797,-69.33399 9.06667,-13.33333 18.80014,-33.06627 23.4668,-47.59961 l 3.86523,-11.59961 7.33398,-0.80078 c 4,-0.53333 8.39961,-1.20013 9.59961,-1.4668 1.86668,-0.53333 1.3336,1.59973 -3.0664,11.06641 -9.33334,20.26667 -16.13399,36.66733 -15.33399,37.33399 1.06667,1.06666 28.00103,-3.8668 29.73438,-5.4668 2,-1.86667 11.33372,-29.19947 14.40039,-42.13281 2.4,-9.86666 2.39883,-9.99922 8.79883,-13.19922 8.13333,-4 17.59975,-12.93335 21.0664,-20 1.86667,-3.46668 2.80078,-7.86745 2.80078,-12.80078 0,-9.46666 -2.79921,-12.66602 -11.19921,-12.66602 -10.93334,0 -19.4677,8.93204 -31.73438,33.33203 l -7.06641,14.26758 -7.33398,0.93359 c -4,0.53334 -8.93216,1.19961 -10.79883,1.59961 l -3.60156,0.66602 2.66797,-15.06641 c 6.13332,-34.53331 17.60053,-71.866664 27.86719,-89.999998 2.13334,-3.866666 3.86523,-8.265755 3.86523,-9.732421 0,-2.133334 -0.9332,-2.667969 -4.5332,-2.667969 z m 27.60937,78.396488 c 1.46654,-0.0327 2.02318,0.29844 3.07422,1.875 0.78197,0.98024 1.14704,2.59795 1.41406,3.34961 -0.24578,4.42976 -2.99894,7.82121 -6.03125,11.83984 -1.83349,2.37829 -3.57207,3.34071 -5.50976,4.69141 -1.58048,1.05368 -3.43893,1.13619 -4.7207,0.89843 0.39983,-3.78788 1.16833,-5.3123 2.48828,-8.86718 0.81154,-2.18566 1.56904,-4.38069 2.38281,-6.55079 1.05855,-2.68768 2.49446,-5.1518 5.08008,-7.11523 0.743,-0.0591 1.33342,-0.11029 1.82226,-0.12109 z" />
</svg>
