<?xml version="1.0" encoding="UTF-8" standalone="no"?>
<svg
   xmlns:dc="http://purl.org/dc/elements/1.1/"
   xmlns:cc="http://creativecommons.org/ns#"
   xmlns:rdf="http://www.w3.org/1999/02/22-rdf-syntax-ns#"
   xmlns:svg="http://www.w3.org/2000/svg"
   xmlns="http://www.w3.org/2000/svg"
   xmlns:xlink="http://www.w3.org/1999/xlink"
   xmlns:sodipodi="http://sodipodi.sourceforge.net/DTD/sodipodi-0.dtd"
   xmlns:inkscape="http://www.inkscape.org/namespaces/inkscape"
   version="1.0"
   width="177.6899pt"
   height="147.11916pt"
   viewBox="0 0 177.6899 147.11916"
   preserveAspectRatio="xMidYMid meet"
   id="svg855"
   sodipodi:docname="frt.svg"
   inkscape:version="1.0.1 (c497b03c, 2020-09-10)"
   inkscape:export-filename="/Users/daniel/bitmap.png"
   inkscape:export-xdpi="300"
   inkscape:export-ydpi="300">
  <metadata
     id="metadata861">
    <rdf:RDF>
      <cc:Work
         rdf:about="">
        <dc:format>image/svg+xml</dc:format>
        <dc:type
           rdf:resource="http://purl.org/dc/dcmitype/StillImage" />
        <dc:title />
      </cc:Work>
    </rdf:RDF>
  </metadata>
  <defs
     id="defs859">
    <linearGradient
       inkscape:collect="always"
       id="linearGradient852">
      <stop
         style="stop-color:#41eac1;stop-opacity:1"
         offset="0"
         id="stop848" />
      <stop
         style="stop-color:#41c1c0;stop-opacity:1"
         offset="0.51300126"
         id="stop856" />
      <stop
         style="stop-color:#3596c0;stop-opacity:1"
         offset="1"
         id="stop850" />
    </linearGradient>
    <linearGradient
       inkscape:collect="always"
       xlink:href="#linearGradient852"
       id="linearGradient854"
       x1="-7.6293816e-09"
       y1="72.575997"
       x2="175.72275"
       y2="72.575997"
       gradientUnits="userSpaceOnUse" />
  </defs>
  <sodipodi:namedview
     pagecolor="#ffffff"
     bordercolor="#666666"
     borderopacity="1"
     objecttolerance="10"
     gridtolerance="10"
     guidetolerance="10"
     inkscape:pageopacity="0"
     inkscape:pageshadow="2"
     inkscape:window-width="1329"
     inkscape:window-height="729"
     id="namedview857"
     showgrid="false"
     inkscape:zoom="0.86526316"
     inkscape:cx="284.27743"
     inkscape:cy="153.66035"
     inkscape:window-x="47"
     inkscape:window-y="25"
     inkscape:window-maximized="0"
     inkscape:current-layer="svg855"
     inkscape:document-rotation="0"
     fit-margin-top="0"
     fit-margin-left="0"
     fit-margin-right="0"
     fit-margin-bottom="0" />
  <g
     aria-label="frt "
     id="text20-3"
     style="font-size:144px;line-height:1.25;font-family:'Harlow Solid';-inkscape-font-specification:'Harlow Solid';stroke-width:0.75">
    <path
       d="m 57.98316,44.30316 6.624,-16.272 q 2.448,-5.76 5.76,-8.064 3.312,-2.448 9.36,-2.448 h 2.016 1.728 q 4.32,0 7.2,-2.592 3.024,-2.736 3.024,-6.6240004 0,-6.048 -7.2,-6.336 h -1.728 -8.064 q -5.184,0 -9.36,1.152 -4.176,1.008 -7.488,3.456 -3.312,2.448 -5.904,6.3360004 -2.592,3.888 -4.896,9.36 l -8.928,22.032 h -8.064 -1.584 q -4.176,0 -7.2,2.736 -3.024,2.592 -3.024,6.336 0,6.048 7.2,6.336 h 1.728 4.752 l -30.0959998,74.016 q -1.152,2.88 -1.44,4.032 -0.432,1.296 -0.432,2.736 0,2.88 2.16,4.752 2.016,1.872 5.04,1.872 6.7679998,0 10.3679998,-7.776 l 0.72,-2.016 31.536,-77.616 h 12.96 1.728 q 4.176,0 7.2,-2.736 3.024,-2.736 3.024,-6.48 0,-6.192 -7.2,-6.192 h -1.728 z"
       style="stroke-width:0.75"
       id="path30" />
    <path
       d="m 90.11541,59.71116 h 7.344 q -5.904,6.624 -8.352,11.376 -2.448,4.608 -2.448,9.504 0,6.048 2.88,10.656 3.024,4.464 7.776,5.76 1.728,0.432 3.168,0.72 1.44,0.288 2.16,0.288 h 13.824 1.728 q 4.176,0 7.056,-2.592 3.024,-2.736 3.024,-6.48 0,-6.048 -7.2,-6.336 h -1.728 -8.784 q -6.48,0 -6.48,-5.904 0,-1.584 0.72,-3.168 0.72,-1.728 2.736,-4.608 0.864,-1.152 1.44,-2.016 0.72,-1.008 1.584,-1.872 0.864,-1.008 1.872,-2.016 1.152,-1.152 2.736,-2.736 l 0.864,-0.576 q 3.024,-0.144 4.32,-0.288 1.296,-0.144 2.304,-0.72 2.016,-0.864 3.456,-3.168 1.584,-2.448 1.584,-4.752 0,-6.48 -7.488,-6.48 h -1.728 -16.56 q -3.312,0 -4.176,-0.432 -0.72,-0.432 -1.152,-2.16 l -0.576,-2.16 q -1.152,-4.896 -6.48,-4.896 -2.88,0 -4.752,1.584 -1.728,1.584 -3.312,5.472 l -7.92,19.584 q -1.008,2.448 -1.296,3.456 -0.288,1.008 -0.288,2.16 0,2.736 2.16,4.608 2.16,1.872 5.04,1.872 2.88,0 4.896,-1.728 2.016,-1.872 3.744,-6.192 z"
       style="stroke-width:0.75"
       id="path32" />
    <path
       d="m 166.60191,44.30316 2.592,-5.616 q 0.864,-1.872 1.296,-3.6 0.432,-1.872 0.432,-3.168 0,-2.88 -2.016,-4.752 -2.016,-1.872 -5.04,-1.872 -6.912,0 -10.224,7.92 l -0.864,1.872 -3.744,9.216 h -3.168 -1.728 q -4.176,0 -7.2,2.736 -3.024,2.592 -3.024,6.336 0,6.336 8.928,6.336 l -8.208,20.304 -1.296,3.024 q -1.296,3.024 -1.296,5.76 0,4.176 3.024,6.768 3.168,2.448 8.496,2.448 h 12.528 1.728 q 4.176,0 7.2,-2.592 3.024,-2.736 3.024,-6.48 0,-6.048 -7.2,-6.336 h -1.728 -7.776 l 9.36,-22.896 h 5.04 1.728 q 4.176,0 7.2,-2.736 3.024,-2.736 3.024,-6.48 0,-6.192 -7.2,-6.192 h -1.728 z"
       style="stroke-width:0.75"
       id="path34" />
  </g>
  <g
     aria-label="frt "
     id="text20-3-8"
     style="font-size:144px;line-height:1.25;font-family:'Harlow Solid';-inkscape-font-specification:'Harlow Solid';fill:url(#linearGradient854);fill-opacity:1;stroke:none;stroke-width:0.75;stroke-opacity:0.522267">
    <path
       d="m 56.016,42.335997 6.624,-16.272 q 2.448,-5.76 5.76,-8.064 3.312,-2.448 9.36,-2.448 h 2.016 1.728 q 4.32,0 7.2,-2.592 3.024,-2.736 3.024,-6.6240005 0,-6.04799998 -7.2,-6.3359999790039 H 82.8 74.736 q -5.184,0 -9.36,1.1519999790039 -4.176,1.008 -7.488,3.456 -3.312,2.448 -5.904,6.3360005 -2.592,3.888 -4.896,9.36 l -8.928,22.032 h -8.064 -1.584 q -4.176,0 -7.2,2.736 -3.024,2.592 -3.024,6.336 0,6.048 7.2,6.336 h 1.728 4.752 L 1.872,131.76 Q 0.71999999,134.64 0.43199999,135.792 0,137.088 0,138.528 q 0,2.88 2.16,4.752 2.016,1.872 5.04,1.872 6.768,0 10.368,-7.776 l 0.72,-2.016 31.536,-77.616003 h 12.96 1.728 q 4.176,0 7.2,-2.736 3.024,-2.736 3.024,-6.48 0,-6.192 -7.2,-6.192 h -1.728 z"
       style="fill:url(#linearGradient854);fill-opacity:1;stroke:none;stroke-width:0.75;stroke-opacity:0.522267"
       id="path23" />
    <path
       d="m 88.14825,57.743997 h 7.344 q -5.904,6.624 -8.352,11.376 -2.448,4.608 -2.448,9.504 0,6.048 2.88,10.656 3.024,4.464 7.776,5.76 1.728,0.432 3.168,0.72 1.44,0.288 2.16,0.288 h 13.824 1.728 q 4.176,0 7.056,-2.592 3.024,-2.736 3.024,-6.48 0,-6.048 -7.2,-6.336 h -1.728 -8.784 q -6.48,0 -6.48,-5.904 0,-1.584 0.72,-3.168 0.72,-1.728 2.736,-4.608 0.864,-1.152 1.44,-2.016 0.72,-1.008 1.584,-1.872 0.864,-1.008 1.872,-2.016 1.152,-1.152 2.736,-2.736 l 0.864,-0.576 q 3.024,-0.144 4.32,-0.288 1.296,-0.144 2.304,-0.72 2.016,-0.864 3.456,-3.168 1.584,-2.448 1.584,-4.752 0,-6.48 -7.488,-6.48 h -1.728 -16.56 q -3.312,0 -4.176,-0.432 -0.72,-0.432 -1.152,-2.16 l -0.576,-2.16 q -1.152,-4.896 -6.48,-4.896 -2.88,0 -4.752,1.584 -1.728,1.584 -3.312,5.472 l -7.92,19.584 q -1.008,2.448 -1.296,3.456 -0.288,1.008 -0.288,2.16 0,2.736 2.16,4.608 2.16,1.872 5.04,1.872 2.88,0 4.896,-1.728 2.016,-1.872 3.744,-6.192 z"
       style="fill:url(#linearGradient854);fill-opacity:1;stroke:none;stroke-width:0.75;stroke-opacity:0.522267"
       id="path25" />
    <path
       d="m 164.63475,42.335997 2.592,-5.616 q 0.864,-1.872 1.296,-3.6 0.432,-1.872 0.432,-3.168 0,-2.88 -2.016,-4.752 -2.016,-1.872 -5.04,-1.872 -6.912,0 -10.224,7.92 l -0.864,1.872 -3.744,9.216 h -3.168 -1.728 q -4.176,0 -7.2,2.736 -3.024,2.592 -3.024,6.336 0,6.336 8.928,6.336 l -8.208,20.304 -1.296,3.024 q -1.296,3.024 -1.296,5.76 0,4.176 3.024,6.768 3.168,2.448 8.496,2.448 h 12.528 1.728 q 4.176,0 7.2,-2.592 3.024,-2.736 3.024,-6.48 0,-6.048 -7.2,-6.336 h -1.728 -7.776 l 9.36,-22.896 h 5.04 1.728 q 4.176,0 7.2,-2.736 3.024,-2.736 3.024,-6.48 0,-6.192 -7.2,-6.192 h -1.728 z"
       style="fill:url(#linearGradient854);fill-opacity:1;stroke:none;stroke-width:0.75;stroke-opacity:0.522267"
       id="path27" />
  </g>
</svg>
